<svg width="24" height="24" viewBox="0 0 24 24" fill="none" xmlns="http://www.w3.org/2000/svg">
<path d="M16.9632 12.6836C17.1807 12.9145 17.4524 13.03 17.7785 13.03C18.1046 13.03 18.3763 12.9145 18.5938 12.6836C18.8247 12.4661 18.9402 12.1944 18.9402 11.8683C18.9402 11.5422 18.8247 11.2705 18.5938 11.053L12.9076 5.36695C12.663 5.12242 12.3505 5.00009 11.9701 5.00009C11.6032 5.00009 11.2907 5.12242 11.0326 5.36695L5.34647 11.053C5.11549 11.2705 5 11.5422 5 11.8683C5 12.1944 5.11549 12.4661 5.34647 12.6836C5.57745 12.9145 5.84918 13.03 6.16168 13.03C6.50136 13.03 6.7731 12.9145 6.97689 12.6836L12.663 6.99737C12.731 6.92941 12.6291 6.8819 12.3573 6.85472C12.0992 6.82753 11.8342 6.82753 11.5625 6.85472C11.3043 6.8819 11.2092 6.92941 11.2772 6.99737L16.9632 12.6836ZM16.9632 19.6536C17.1807 19.8846 17.4524 20.0001 17.7785 20.0001C18.1046 20.0001 18.3763 19.8846 18.5938 19.6536C18.8247 19.4362 18.9402 19.1645 18.9402 18.8384C18.9402 18.5123 18.8247 18.2406 18.5938 18.0232L12.9076 12.337C12.663 12.0925 12.3505 11.9702 11.9701 11.9702C11.6032 11.9702 11.2907 12.0925 11.0326 12.337L5.34647 18.0232C5.11549 18.2406 5 18.5123 5 18.8384C5 19.1645 5.11549 19.4362 5.34647 19.6536C5.57745 19.8846 5.84918 20.0001 6.16168 20.0001C6.50136 20.0001 6.7731 19.8846 6.97689 19.6536L12.663 13.9675C12.731 13.8995 12.6291 13.852 12.3573 13.8248C12.0992 13.7976 11.8342 13.7976 11.5625 13.8248C11.3043 13.852 11.2092 13.8995 11.2772 13.9675L16.9632 19.6536Z" fill="#E4E4E7"/>
</svg>
