<svg width="24" height="24" viewBox="0 0 24 24" fill="none" xmlns="http://www.w3.org/2000/svg">
<path d="M15.2329 19.5C15.0913 19.5008 14.9509 19.4737 14.8198 19.4201C14.6887 19.3666 14.5695 19.2877 14.4689 19.1879L8.01289 12.7319C7.81248 12.5303 7.7 12.2576 7.7 11.9733C7.7 11.6891 7.81248 11.4164 8.01289 11.2148L14.4689 4.75873C14.6748 4.58245 14.9395 4.49034 15.2103 4.5008C15.4811 4.51126 15.738 4.62352 15.9297 4.81515C16.1213 5.00678 16.2335 5.26367 16.244 5.53447C16.2545 5.80528 16.1624 6.07006 15.9861 6.2759L10.294 11.968L15.9861 17.66C16.1372 17.8099 16.2404 18.0012 16.2828 18.2097C16.3252 18.4183 16.3048 18.6347 16.2242 18.8316C16.1435 19.0286 16.0063 19.1972 15.8299 19.3162C15.6534 19.4351 15.4457 19.4991 15.2329 19.5Z" fill="#E4E4E7"/>
</svg>
