<svg width="24" height="24" viewBox="0 0 24 24" fill="none" xmlns="http://www.w3.org/2000/svg">
<path d="M11.3937 19.3739C11.5545 19.5347 11.7726 19.625 12 19.625C12.2274 19.625 12.4455 19.5347 12.6063 19.3739C12.7671 19.2131 12.8574 18.995 12.8574 18.7676V5.23242C12.8574 5.00502 12.7671 4.78693 12.6063 4.62613C12.4455 4.46534 12.2274 4.375 12 4.375C11.7726 4.375 11.5545 4.46534 11.3937 4.62613C11.2329 4.78693 11.1426 5.00502 11.1426 5.23242V18.7676C11.1426 18.995 11.2329 19.2131 11.3937 19.3739Z" fill="#E4E4E7" stroke="#E4E4E7" stroke-width="0.25"/>
<path d="M5.23242 12.8574H18.7676C18.995 12.8574 19.2131 12.7671 19.3739 12.6063C19.5347 12.4455 19.625 12.2274 19.625 12C19.625 11.7726 19.5347 11.5545 19.3739 11.3937C19.2131 11.2329 18.995 11.1426 18.7676 11.1426H5.23242C5.00502 11.1426 4.78693 11.2329 4.62613 11.3937C4.46534 11.5545 4.375 11.7726 4.375 12C4.375 12.2274 4.46534 12.4455 4.62613 12.6063C4.78693 12.7671 5.00502 12.8574 5.23242 12.8574Z" fill="#E4E4E7" stroke="#E4E4E7" stroke-width="0.25"/>
</svg>
