<svg width="24" height="24" viewBox="0 0 24 24" fill="none" xmlns="http://www.w3.org/2000/svg">
<path d="M16.9638 12.3166C17.1813 12.0857 17.453 11.9702 17.7791 11.9702C18.1052 11.9702 18.3769 12.0857 18.5944 12.3166C18.8253 12.5341 18.9408 12.8058 18.9408 13.1319C18.9408 13.458 18.8253 13.7297 18.5944 13.9471L12.9082 19.6332C12.6636 19.8778 12.3512 20.0001 11.9707 20.0001C11.6038 20.0001 11.2914 19.8778 11.0332 19.6332L5.34708 13.9471C5.1161 13.7297 5.00061 13.458 5.00061 13.1319C5.00061 12.8058 5.1161 12.5341 5.34708 12.3166C5.57805 12.0857 5.84978 11.9702 6.16229 11.9702C6.50196 11.9702 6.7737 12.0857 6.9775 12.3166L12.6636 18.0028C12.7316 18.0708 12.6297 18.1183 12.3579 18.1455C12.0998 18.1726 11.8348 18.1726 11.5631 18.1455C11.3049 18.1183 11.2098 18.0708 11.2778 18.0028L16.9638 12.3166ZM16.9638 5.34656C17.1813 5.11559 17.453 5.00009 17.7791 5.00009C18.1052 5.00009 18.3769 5.11559 18.5944 5.34656C18.8253 5.56395 18.9408 5.83569 18.9408 6.16177C18.9408 6.48786 18.8253 6.7596 18.5944 6.97699L12.9082 12.6631C12.6636 12.9077 12.3512 13.03 11.9707 13.03C11.6038 13.03 11.2914 12.9077 11.0332 12.6631L5.34708 6.97699C5.1161 6.7596 5.00061 6.48786 5.00061 6.16177C5.00061 5.83569 5.1161 5.56395 5.34708 5.34656C5.57805 5.11559 5.84978 5.00009 6.16229 5.00009C6.50196 5.00009 6.7737 5.11559 6.9775 5.34656L12.6636 11.0327C12.7316 11.1007 12.6297 11.1482 12.3579 11.1754C12.0998 11.2025 11.8348 11.2025 11.5631 11.1754C11.3049 11.1482 11.2098 11.1007 11.2778 11.0327L16.9638 5.34656Z" fill="#E4E4E7"/>
</svg>
