<svg width="24" height="24" viewBox="0 0 24 24" fill="none" xmlns="http://www.w3.org/2000/svg">
<path fill-rule="evenodd" clip-rule="evenodd" d="M18.2071 5.79289C18.5976 6.18342 18.5976 6.81658 18.2071 7.20711L7.20711 18.2071C6.81658 18.5976 6.18342 18.5976 5.79289 18.2071C5.40237 17.8166 5.40237 17.1834 5.79289 16.7929L16.7929 5.79289C17.1834 5.40237 17.8166 5.40237 18.2071 5.79289Z" fill="#E4E4E7"/>
<path fill-rule="evenodd" clip-rule="evenodd" d="M5.79289 5.79289C5.40237 6.18342 5.40237 6.81658 5.79289 7.20711L16.7929 18.2071C17.1834 18.5976 17.8166 18.5976 18.2071 18.2071C18.5976 17.8166 18.5976 17.1834 18.2071 16.7929L7.20711 5.79289C6.81658 5.40237 6.18342 5.40237 5.79289 5.79289Z" fill="#E4E4E7"/>
</svg>
