<svg width="32" height="32" viewBox="0 0 32 32" fill="none" xmlns="http://www.w3.org/2000/svg">
<path d="M22.4111 16.9682C22.7145 16.9682 22.764 16.6856 22.7455 16.5462C22.3278 13.4003 19.734 10.9416 16.5266 10.7332C16.3805 10.7238 16.0844 10.733 16.0844 11.0264V16.5551C16.0844 16.5551 16.0844 16.9682 16.4974 16.9682C17.9758 16.9682 22.4111 16.9682 22.4111 16.9682Z" fill="#E4E4E7"/>
<path d="M23.923 11.2242L24.3721 10.7752C24.4106 10.7367 24.4517 10.7385 24.4745 10.7366C24.6179 10.7241 24.7756 10.7091 24.957 10.6757C25.6132 10.5548 25.2824 9.83768 24.6182 9.1734C23.9538 8.50907 23.2301 8.17708 23.1159 8.83459C23.0817 9.03148 23.0676 9.1734 23.0551 9.31683C23.0537 9.33394 23.0552 9.36434 23.0236 9.39595L22.5905 9.82901C22.5062 9.91332 22.4402 9.84947 22.4048 9.82011C21.0614 8.70445 19.4183 7.9376 17.6139 7.65773C17.5697 7.65091 17.4811 7.63918 17.4811 7.54886V7.28159C17.4811 7.21658 17.5318 7.19242 17.5565 7.18144C17.9815 6.9912 18.2786 6.71209 18.5565 6.39142C19.1895 5.66121 17.4534 5.2 16.0929 5.2C14.7323 5.2 12.9963 5.66109 13.6294 6.39136C13.8997 6.70307 14.1878 6.97566 14.5942 7.16543C14.6247 7.17971 14.6878 7.19491 14.6878 7.2924V7.53441C14.6878 7.62832 14.6027 7.64993 14.5603 7.65646C12.2471 8.01394 10.1981 9.17179 8.70634 10.8392C7.13791 12.5907 6.1844 14.904 6.1844 17.4397C6.1844 22.9077 10.6167 27.34 16.0841 27.34C21.2856 27.34 25.5504 23.3289 25.9531 18.2303C25.9739 17.9696 25.9844 17.7061 25.9844 17.4397C25.9844 15.1647 25.2168 13.0691 23.9269 11.3973C23.9012 11.364 23.8484 11.2988 23.923 11.2242ZM24.0716 18.2233C23.6781 22.2882 20.2523 25.4654 16.0841 25.4654C11.6517 25.4654 8.05842 21.8721 8.05842 17.4397C8.05842 15.3836 8.83168 13.5084 10.103 12.0885C11.5726 10.4473 13.7078 9.41409 16.0841 9.41409C20.517 9.41409 24.1097 13.0074 24.1097 17.4397C24.1097 17.7039 24.0971 17.9657 24.0716 18.2233Z" fill="#E4E4E7"/>
</svg>
