<svg width="24" height="24" viewBox="0 0 24 24" fill="none" xmlns="http://www.w3.org/2000/svg">
<path fill-rule="evenodd" clip-rule="evenodd" d="M19.3312 6.97674V7.39535C19.3312 8.20409 18.6756 8.86046 17.866 8.86046H6.14511C5.33553 8.86046 4.67999 8.20409 4.67999 7.39535V6.97674C4.67999 6.168 5.33553 5.51163 6.14511 5.51163H17.866C18.6756 5.51163 19.3312 6.168 19.3312 6.97674Z" fill="#E4E4E7"/>
<path fill-rule="evenodd" clip-rule="evenodd" d="M8.02883 6.12865V5.30233C8.02883 4.692 8.27162 4.10595 8.70279 3.67395C9.13479 3.24279 9.72083 3 10.3312 3H13.68C14.2903 3 14.8764 3.24279 15.3084 3.67395C15.7395 4.10595 15.9823 4.692 15.9823 5.30233V6.12865C15.9823 6.71805 15.3544 6.76744 15.3544 6.76744C15.1359 6.76744 14.9442 6.65609 14.8312 6.48698C14.7851 6.42167 14.7499 6.34047 14.7349 6.24167C14.7299 6.20902 14.7265 6.1747 14.7265 6.13953C14.7265 6.13619 14.7265 6.132 14.7265 6.12865V5.30233C14.7265 5.02437 14.616 4.75898 14.4201 4.56223C14.2233 4.36633 13.9579 4.25581 13.68 4.25581H10.3312C10.0532 4.25581 9.78781 4.36633 9.59106 4.56223C9.39516 4.75898 9.28465 5.02437 9.28465 5.30233V6.12865C9.28465 6.71805 8.65674 6.76744 8.65674 6.76744C8.31013 6.76744 8.02883 6.48614 8.02883 6.13953C8.02883 6.13619 8.02883 6.132 8.02883 6.12865Z" fill="#E4E4E7"/>
<path fill-rule="evenodd" clip-rule="evenodd" d="M18.3985 9.63573L17.7631 18.8559C17.6793 20.0632 16.6764 21 15.4658 21H8.54539C7.33479 21 6.33181 20.0632 6.24809 18.8559L5.61265 9.63573C5.78344 9.67591 5.96176 9.69768 6.14511 9.69768H17.866C18.0494 9.69768 18.2277 9.67591 18.3985 9.63573ZM11.3777 12V18.2791C11.3777 18.6257 11.659 18.907 12.0056 18.907C12.3522 18.907 12.6335 18.6257 12.6335 18.2791V12C12.6335 11.6534 12.3522 11.3721 12.0056 11.3721C11.659 11.3721 11.3777 11.6534 11.3777 12ZM14.3096 11.9581L13.891 18.2372C13.8675 18.583 14.1296 18.8827 14.4753 18.9053C14.8211 18.9288 15.1208 18.6667 15.1434 18.3209L15.562 12.0419C15.5855 11.6961 15.3234 11.3964 14.9777 11.3738C14.6319 11.3503 14.3322 11.6124 14.3096 11.9581ZM8.44911 12.0419L8.86772 18.3209C8.89032 18.6667 9.19004 18.9288 9.53581 18.9053C9.88158 18.8827 10.1436 18.583 10.1202 18.2372L9.70158 11.9581C9.67897 11.6124 9.37925 11.3503 9.03349 11.3738C8.68772 11.3964 8.42567 11.6961 8.44911 12.0419Z" fill="#E4E4E7"/>
</svg>
