<svg width="32" height="32" viewBox="0 0 32 32" fill="none" xmlns="http://www.w3.org/2000/svg">
<path d="M30.7259 8.99665V8.2H27.3004V8.99665H28.6148V22.4025H27.3004V23.1991H30.7259V22.4025H29.4115V8.99665H30.7259Z" fill="#E4E4E7"/>
<path d="M4.6555 23.1881H1.26L6.43374 8.2H10.5171L15.6835 23.1881H12.288L8.53397 11.625H8.41689L4.6555 23.1881ZM4.44328 17.2968H12.4637V19.7704H4.44328V17.2968Z" fill="#E4E4E7"/>
<path d="M20.0006 23.3998C19.2835 23.3998 18.6444 23.2754 18.0834 23.0266C17.5223 22.7729 17.0784 22.3996 16.7515 21.9069C16.4295 21.4092 16.2685 20.7896 16.2685 20.048C16.2685 19.4235 16.3832 18.899 16.6125 18.4745C16.8418 18.0501 17.154 17.7085 17.5491 17.4499C17.9443 17.1914 18.3931 16.9962 18.8956 16.8645C19.403 16.7327 19.9348 16.64 20.4909 16.5864C21.1447 16.5181 21.6716 16.4546 22.0716 16.3961C22.4716 16.3327 22.7619 16.24 22.9424 16.118C23.1229 15.996 23.2132 15.8155 23.2132 15.5764V15.5325C23.2132 15.069 23.0668 14.7104 22.7741 14.4567C22.4863 14.203 22.0765 14.0761 21.5447 14.0761C20.9837 14.0761 20.5373 14.2006 20.2055 14.4494C19.8738 14.6933 19.6543 15.0007 19.5469 15.3715L16.6637 15.1373C16.81 14.4543 17.0979 13.8639 17.5272 13.3663C17.9565 12.8637 18.5102 12.4783 19.1884 12.2099C19.8714 11.9367 20.6617 11.8001 21.5593 11.8001C22.1838 11.8001 22.7814 11.8733 23.3522 12.0197C23.9279 12.166 24.4377 12.3929 24.8817 12.7003C25.3305 13.0077 25.6842 13.4028 25.9428 13.8859C26.2013 14.364 26.3306 14.9373 26.3306 15.6057V23.1876H23.3742V21.6288H23.2864C23.1059 21.9801 22.8644 22.2899 22.5619 22.5582C22.2594 22.8217 21.896 23.029 21.4715 23.1803C21.0471 23.3266 20.5568 23.3998 20.0006 23.3998ZM20.8934 21.2482C21.352 21.2482 21.7569 21.1579 22.1082 20.9774C22.4594 20.792 22.7351 20.5432 22.9351 20.2309C23.1351 19.9187 23.2351 19.565 23.2351 19.1698V17.9769C23.1376 18.0403 23.0034 18.0988 22.8327 18.1525C22.6668 18.2013 22.479 18.2476 22.2692 18.2916C22.0594 18.3306 21.8496 18.3672 21.6398 18.4013C21.4301 18.4306 21.2398 18.4574 21.069 18.4818C20.7032 18.5355 20.3836 18.6209 20.1104 18.738C19.8372 18.8551 19.625 19.0136 19.4737 19.2137C19.3225 19.4088 19.2469 19.6528 19.2469 19.9455C19.2469 20.37 19.4006 20.6944 19.7079 20.9189C20.0202 21.1384 20.4153 21.2482 20.8934 21.2482Z" fill="#E4E4E7"/>
</svg>
