<svg width="24" height="24" viewBox="0 0 24 24" fill="none" xmlns="http://www.w3.org/2000/svg">
<path fill-rule="evenodd" clip-rule="evenodd" d="M15.2988 3.77662C15.6677 3.40779 16.2657 3.40779 16.6345 3.77662L19.2789 6.42105C19.456 6.59817 19.5556 6.83839 19.5556 7.08888C19.5556 7.33936 19.456 7.57958 19.2789 7.7567L10.59 16.4456C10.413 16.6227 10.1727 16.7222 9.92222 16.7222H7.27778C6.75618 16.7222 6.33333 16.2994 6.33333 15.7778V13.1333C6.33333 12.8829 6.43284 12.6426 6.60995 12.4655L15.2988 3.77662ZM15.9667 5.78009L8.22222 13.5245V14.8333H9.53102L17.2755 7.08888L15.9667 5.78009ZM3.5 19.5556C3.5 19.0339 3.92285 18.6111 4.44444 18.6111H19.5556C20.0772 18.6111 20.5 19.0339 20.5 19.5556C20.5 20.0772 20.0772 20.5 19.5556 20.5H4.44444C3.92285 20.5 3.5 20.0772 3.5 19.5556Z" fill="#E4E4E7"/>
<path d="M15.9667 5.78009L8.22222 13.5245V14.8333H9.53102L17.2755 7.08888L15.9667 5.78009Z" fill="#E4E4E7"/>
</svg>
