<svg width="33" height="32" viewBox="0 0 33 32" fill="none" xmlns="http://www.w3.org/2000/svg">
<path d="M15.9798 26.4685C9.34162 26.4685 4.81738 23.9274 4.81738 20.5456C4.81738 19.6124 5.22086 18.691 5.98441 17.882C6.26458 17.5851 6.73316 17.5723 7.0301 17.8515C7.32704 18.1316 7.34085 18.6002 7.06068 18.8972C6.55362 19.4338 6.29713 19.9882 6.29713 20.5456C6.29713 22.7445 9.78357 24.9888 15.9798 24.9888C16.3882 24.9888 16.7196 25.3202 16.7196 25.7287C16.7196 26.1371 16.3882 26.4685 15.9798 26.4685Z" fill="#E4E4E7"/>
<path d="M19.4385 26.3896C19.0656 26.3896 18.744 26.1084 18.7036 25.7286C18.6602 25.3222 18.9541 24.9572 19.3606 24.9138C23.9153 24.4254 27.0141 22.5786 27.0141 20.5424C27.0141 19.9772 26.7586 19.4247 26.2545 18.8989C25.9713 18.6039 25.9822 18.1353 26.2762 17.8522C26.5701 17.5691 27.0377 17.5799 27.3228 17.8739C28.0893 18.675 28.4938 19.5974 28.4938 20.5434C28.4938 23.429 25.0014 25.7977 19.5184 26.3856C19.4918 26.3886 19.4652 26.3896 19.4385 26.3896Z" fill="#E4E4E7"/>
<path d="M13.5676 28.5003C13.3506 28.5003 13.1356 28.4046 12.9886 28.2221C12.734 27.9025 12.7863 27.4369 13.106 27.1824L14.7939 25.8368L13.106 24.4912C12.7863 24.2366 12.734 23.771 12.9886 23.4514C13.2441 23.1327 13.7087 23.0814 14.0283 23.334L16.4413 25.2587C16.6169 25.3997 16.7195 25.6118 16.7195 25.8368C16.7195 26.0617 16.6169 26.2748 16.4413 26.4148L14.0283 28.3395C13.8922 28.4471 13.7294 28.5003 13.5676 28.5003Z" fill="#E4E4E7"/>
<path d="M19.7833 21.2642H13.5274C12.3329 21.2642 11.3618 20.2931 11.3618 19.0986L11.3618 7.06399C11.3618 5.86957 12.3329 4.89844 13.5274 4.89844H19.7833C20.9778 4.89844 21.9489 5.86957 21.9489 7.06399V19.0986C21.9489 20.2931 20.9778 21.2642 19.7833 21.2642ZM13.5274 6.34214C13.1289 6.34214 12.8055 6.66553 12.8055 7.06399V19.0986C12.8055 19.4971 13.1289 19.8205 13.5274 19.8205H19.7833C20.1818 19.8205 20.5052 19.4971 20.5052 19.0986V7.06399C20.5052 6.66553 20.1818 6.34214 19.7833 6.34214H13.5274Z" fill="#E4E4E7"/>
<path d="M13.5274 6.34214C13.1289 6.34214 12.8055 6.66553 12.8055 7.06399V19.0986C12.8055 19.4971 13.1289 19.8205 13.5274 19.8205H19.7833C20.1818 19.8205 20.5052 19.4971 20.5052 19.0986V7.06399C20.5052 6.66553 20.1818 6.34214 19.7833 6.34214H13.5274Z" fill="#E4E4E7"/>
<path fill-rule="evenodd" clip-rule="evenodd" d="M20.3392 4.97055C20.2441 4.92435 20.1373 4.89844 20.0245 4.89844C19.9866 4.89844 19.949 4.89969 19.9118 4.90217C20.0586 4.91076 20.2016 4.93403 20.3392 4.97055ZM14.9544 6.34214C14.9657 6.42074 14.9716 6.50108 14.9716 6.58276C14.9716 6.71558 15.0794 6.82338 15.2122 6.82338H18.0996C18.2324 6.82338 18.3402 6.71558 18.3402 6.58276C18.3402 6.50108 18.346 6.42074 18.3573 6.34214H19.7839C19.8365 6.34214 19.8878 6.34778 19.9372 6.35848C19.8475 6.39346 19.7839 6.48072 19.7839 6.58276C19.7839 7.51154 19.0283 8.26708 18.0996 8.26708H15.2122C14.2834 8.26708 13.5279 7.51154 13.5279 6.58276C13.5279 6.48072 13.4643 6.39345 13.3746 6.35848C13.424 6.34778 13.4753 6.34214 13.5279 6.34214H14.9544ZM13.4 4.90217C13.3627 4.89969 13.3251 4.89844 13.2873 4.89844C13.1745 4.89844 13.0677 4.92434 12.9726 4.97053C13.1102 4.93402 13.2531 4.91075 13.4 4.90217Z" fill="#383A43"/>
</svg>
