<svg width="19" height="16" viewBox="0 0 19 16" fill="none" xmlns="http://www.w3.org/2000/svg">
<g id="Group">
<g id="Group_2">
<g id="Vector">
<path d="M16.7354 3.15752H11.0384C10.8071 3.15752 10.5812 3.06257 10.4252 2.90117L8.64764 1.02861C8.22035 0.602688 7.63574 0.380219 7.04364 0.383629H3.17104C1.9482 0.383594 0.953247 1.37855 0.953247 2.60135V13.3986C0.953247 14.6215 1.9482 15.6164 3.17104 15.6164H16.7436H16.7456C17.9678 15.611 18.9587 14.6113 18.9532 13.3918V5.37528C18.9532 4.15245 17.9583 3.15752 16.7354 3.15752ZM17.5968 13.3946C17.5988 13.8693 17.2143 14.258 16.7423 14.26H3.17104C2.69629 14.26 2.30971 13.8734 2.30971 13.3987V2.60135C2.30971 2.1266 2.69629 1.74003 3.17104 1.73932H7.06129C7.06874 1.73932 7.07619 1.73932 7.08368 1.73932C7.31019 1.73932 7.52995 1.82953 7.67779 1.97603L9.4459 3.83977C9.86095 4.26839 10.4415 4.51392 11.0384 4.51392H16.7354C17.2102 4.51392 17.5968 4.9005 17.5968 5.37525L17.5968 13.3946Z" fill="#E4E4E7"/>
<path d="M17.5968 13.3946C17.5988 13.8693 17.2143 14.258 16.7423 14.26H3.17104C2.69629 14.26 2.30971 13.8734 2.30971 13.3987V2.60135C2.30971 2.1266 2.69629 1.74003 3.17104 1.73932H7.06129H7.08368C7.31019 1.73932 7.52995 1.82953 7.67779 1.97603L9.4459 3.83977C9.86095 4.26839 10.4415 4.51392 11.0384 4.51392H16.7354C17.2102 4.51392 17.5968 4.9005 17.5968 5.37525L17.5968 13.3946Z" fill="#E4E4E7"/>
</g>
</g>
</g>
</svg>
