<svg width="24" height="24" viewBox="0 0 24 24" fill="none" xmlns="http://www.w3.org/2000/svg">
<path fill-rule="evenodd" clip-rule="evenodd" d="M5.14143 3C3.72127 3 2.57 4.15127 2.57 5.57143V18.4286C2.57 19.8488 3.72127 21 5.14143 21H18.8557C20.2759 21 21.4271 19.8488 21.4271 18.4286V8.14286C21.4271 6.7227 20.2759 5.57143 18.8557 5.57143H11.9986L10.1803 3.75315C9.69806 3.27092 9.04401 3 8.36202 3H5.14143ZM8.82105 12.6796L11.3925 10.1082C11.7272 9.77346 12.2699 9.77346 12.6047 10.1082L15.1761 12.6796C15.5108 13.0143 15.5108 13.5571 15.1761 13.8918C14.8414 14.2265 14.2986 14.2265 13.9639 13.8918L12.8557 12.7836V16.7143C12.8557 17.1877 12.472 17.5714 11.9986 17.5714C11.5252 17.5714 11.1414 17.1877 11.1414 16.7143V12.7836L10.0332 13.8918C9.6985 14.2265 9.15579 14.2265 8.82105 13.8918C8.48632 13.5571 8.48632 13.0143 8.82105 12.6796Z" fill="#E4E4E7"/>
</svg>
