<svg width="32" height="32" viewBox="0 0 32 32" fill="none" xmlns="http://www.w3.org/2000/svg">
<path d="M12.4421 9.18803C12.4421 7.11173 14.0541 5.49976 16.1304 5.49976C18.1504 5.49976 19.6741 7.12834 19.9033 9.07648C19.9077 9.1135 19.9099 9.15075 19.9099 9.18803V14.7031C19.9099 16.8 18.186 18.3913 16.2215 18.3913H16.1304C14.0335 18.3913 12.4421 16.6675 12.4421 14.7031V9.18803Z" fill="#E4E4E7"/>
<path d="M10.6149 13.6992C10.6149 13.172 10.1875 12.7446 9.66029 12.7446C9.13306 12.7446 8.70566 13.172 8.70566 13.6992V14.7015C8.70566 18.3993 11.4991 21.4634 15.0844 21.8922L15.0843 21.9001V24.5905H12.394C11.8668 24.5905 11.4394 25.0179 11.4394 25.5452C11.4394 26.0724 11.8668 26.4998 12.394 26.4998H19.6839C20.2112 26.4998 20.6386 26.0724 20.6386 25.5452C20.6386 25.0179 20.2112 24.5905 19.6839 24.5905H16.9936V21.9001L16.9934 21.8808C20.5348 21.4115 23.2812 18.368 23.2812 14.7015V13.6992C23.2812 13.172 22.8538 12.7446 22.3266 12.7446C21.7993 12.7446 21.3719 13.172 21.3719 13.6992V14.7015C21.3719 17.637 18.9745 20.0344 16.039 20.0344H15.9479C13.0124 20.0344 10.6149 17.637 10.6149 14.7015V13.6992Z" fill="#E4E4E7"/>
</svg>
