<svg width="24" height="24" viewBox="0 0 24 24" fill="none" xmlns="http://www.w3.org/2000/svg">
<path d="M12.0143 7.42857C12.9611 7.42857 13.7286 6.66106 13.7286 5.71429C13.7286 4.76751 12.9611 4 12.0143 4C11.0675 4 10.3 4.76751 10.3 5.71429C10.3 6.66106 11.0675 7.42857 12.0143 7.42857Z" fill="#E4E4E7"/>
<path d="M12.0141 13.7143C12.9609 13.7143 13.7284 12.9468 13.7284 12C13.7284 11.0532 12.9609 10.2857 12.0141 10.2857C11.0673 10.2857 10.2998 11.0532 10.2998 12C10.2998 12.9468 11.0673 13.7143 12.0141 13.7143Z" fill="#E4E4E7"/>
<path d="M12.0141 20C12.9609 20 13.7284 19.2325 13.7284 18.2857C13.7284 17.3389 12.9609 16.5714 12.0141 16.5714C11.0673 16.5714 10.2998 17.3389 10.2998 18.2857C10.2998 19.2325 11.0673 20 12.0141 20Z" fill="#E4E4E7"/>
</svg>
