<svg width="32" height="32" viewBox="0 0 32 32" fill="none" xmlns="http://www.w3.org/2000/svg">
<path d="M6.69735 21.9624L6.69735 10.5882C6.69735 9.0048 6.69735 8.21311 7.20191 7.95345C7.70647 7.69378 8.35075 8.15395 9.63921 9.07427L11.1101 10.1249C11.683 10.5341 11.9694 10.7387 12.1241 11.0393C12.2787 11.3398 12.2787 11.6918 12.2787 12.3958L12.2787 20.1547C12.2787 20.8588 12.2787 21.2108 12.1241 21.5113C11.9694 21.8118 11.683 22.0164 11.1101 22.4256L9.63921 23.4763C8.35075 24.3966 7.70647 24.8568 7.20191 24.5971C6.69735 24.3374 6.69735 23.5458 6.69735 21.9624Z" fill="#E4E4E7"/>
<path d="M25.3017 21.9624L25.3017 10.5882C25.3017 9.00481 25.3017 8.21311 24.7971 7.95345C24.2925 7.69378 23.6483 8.15395 22.3598 9.07427L20.8889 10.1249C20.316 10.5341 20.0296 10.7387 19.8749 11.0393C19.7203 11.3398 19.7203 11.6918 19.7203 12.3958L19.7203 20.1547C19.7203 20.8588 19.7203 21.2108 19.8749 21.5113C20.0296 21.8118 20.316 22.0164 20.8889 22.4256L22.3598 23.4763C23.6483 24.3966 24.2925 24.8568 24.7971 24.5971C25.3017 24.3374 25.3017 23.5458 25.3017 21.9624Z" fill="#E4E4E7"/>
<path fill-rule="evenodd" clip-rule="evenodd" d="M15.9994 6.00066C16.3847 6.00066 16.697 6.31302 16.697 6.69833L16.697 10.4193C16.697 10.8046 16.3847 11.1169 15.9994 11.1169C15.6141 11.1169 15.3017 10.8046 15.3017 10.4193L15.3017 6.69833C15.3017 6.31302 15.6141 6.00066 15.9994 6.00066ZM15.9994 13.4425C16.3847 13.4425 16.697 13.7549 16.697 14.1402L16.697 17.8611C16.697 18.2464 16.3847 18.5588 15.9994 18.5588C15.6141 18.5588 15.3017 18.2464 15.3017 17.8611L15.3017 14.1402C15.3017 13.7549 15.6141 13.4425 15.9994 13.4425ZM15.9994 20.8844C16.3847 20.8844 16.697 21.1967 16.697 21.5821L16.697 25.303C16.697 25.6883 16.3847 26.0007 15.9994 26.0007C15.6141 26.0007 15.3017 25.6883 15.3017 25.303L15.3017 21.5821C15.3017 21.1967 15.6141 20.8844 15.9994 20.8844Z" fill="#E4E4E7"/>
<path d="M16.0005 6V25.8" stroke="#E4E4E7" stroke-width="1.65" stroke-linecap="round"/>
</svg>
