<svg width="24" height="24" viewBox="0 0 24 24" fill="none" xmlns="http://www.w3.org/2000/svg">
<path d="M10.07 4.92857V19.0714C10.07 19.5829 9.86681 20.0735 9.50513 20.4351C9.14346 20.7968 8.65292 21 8.14143 21H7.49857C6.98708 21 6.49654 20.7968 6.13487 20.4351C5.77319 20.0735 5.57 19.5829 5.57 19.0714V4.92857C5.57 4.41708 5.77319 3.92654 6.13487 3.56487C6.49654 3.20319 6.98708 3 7.49857 3H8.14143C8.65292 3 9.14346 3.20319 9.50513 3.56487C9.86681 3.92654 10.07 4.41708 10.07 4.92857ZM16.4986 3H15.8557C15.3442 3 14.8537 3.20319 14.492 3.56487C14.1303 3.92654 13.9271 4.41708 13.9271 4.92857V19.0714C13.9271 19.5829 14.1303 20.0735 14.492 20.4351C14.8537 20.7968 15.3442 21 15.8557 21H16.4986C17.0101 21 17.5006 20.7968 17.8623 20.4351C18.224 20.0735 18.4271 19.5829 18.4271 19.0714V4.92857C18.4271 4.41708 18.224 3.92654 17.8623 3.56487C17.5006 3.20319 17.0101 3 16.4986 3Z" fill="#E4E4E7"/>
</svg>
