<svg width="32" height="32" viewBox="0 0 32 32" fill="none" xmlns="http://www.w3.org/2000/svg">
<path d="M16 6C21.5229 6 26 10.4771 26 16C26 21.5228 21.5229 26 16 26C11.6444 26 7.9416 23.2159 6.5693 19.3332C6.3852 18.8125 6.6582 18.2412 7.1789 18.0572C7.6996 17.8731 8.2709 18.146 8.455 18.6668C9.5537 21.7753 12.5183 24 16 24C20.4183 24 24 20.4183 24 16C24 11.5817 20.4183 8 16 8C14.4484 8 13.1338 8.56117 11.8838 9.4406C11.0431 10.0321 10.2652 10.7411 9.4758 11.5H12.5C13.0523 11.5 13.5 11.9477 13.5 12.5C13.5 13.0523 13.0523 13.5 12.5 13.5H7C6.4477 13.5 6 13.0523 6 12.5V7C6 6.44772 6.4477 6 7 6C7.5523 6 8 6.44772 8 7V10.1437C8.8483 9.32583 9.7544 8.49337 10.733 7.80489C12.2051 6.76916 13.9153 6 16 6Z" fill="#E4E4E7"/>
</svg>
