<svg width="24" height="24" viewBox="0 0 24 24" fill="none" xmlns="http://www.w3.org/2000/svg">
<path d="M13.3129 6H4.18818C2.98468 6 2 6.98468 2 8.18818V15.5624C2 16.7659 2.98468 17.7505 4.18818 17.7505H13.3129C14.5164 17.7505 15.5011 16.7659 15.5011 15.5624V8.18818C15.5011 6.9628 14.5164 6 13.3129 6Z" fill="#F0F0F0"/>
<path d="M20.3807 7.2035C20.2495 7.22539 20.1182 7.29103 20.0088 7.35668L16.5952 9.32604V14.4026L20.0306 16.372C20.6652 16.744 21.453 16.5252 21.8249 15.8906C21.9344 15.6937 22 15.4748 22 15.2341V8.47265C22 7.66302 21.2341 7.00657 20.3807 7.2035Z" fill="#F0F0F0"/>
</svg>
