<svg width="32" height="32" viewBox="0 0 32 32" fill="none" xmlns="http://www.w3.org/2000/svg">
<path d="M4.58896 10.3581H12.4132H12.4327C12.7027 10.3581 12.9217 10.139 12.9217 9.86909C12.9217 9.70968 12.8454 9.56786 12.7271 9.47886L8.88348 4.67384C8.69766 4.44205 8.30547 4.44205 8.11965 4.67384L4.20753 9.56395C4.09016 9.71066 4.06767 9.91213 4.14885 10.0813C4.23002 10.2505 4.40118 10.3581 4.58896 10.3581Z" fill="#E4E4E7"/>
<path d="M12.3134 20.6319H4.48915C4.30137 20.6319 4.13021 20.7394 4.04806 20.9086C3.96688 21.0778 3.98938 21.2793 4.10674 21.426L8.01886 26.3161C8.11177 26.4325 8.25261 26.5 8.40127 26.5C8.54993 26.5 8.68978 26.4325 8.78367 26.3161L12.6958 21.426C12.8131 21.2793 12.8356 21.0778 12.7544 20.9086C12.6723 20.7404 12.5011 20.6319 12.3134 20.6319Z" fill="#E4E4E7"/>
<rect x="4.1004" y="13.2975" width="8.8022" height="1.46703" rx="0.733517" fill="#E4E4E7"/>
<rect x="4.27644" y="16.2316" width="5.63341" height="1.40835" rx="0.704176" fill="#E4E4E7"/>
<g clip-path="url(#clip0_556_3451)">
<path fill-rule="evenodd" clip-rule="evenodd" d="M12.6948 16.3833C12.5147 16.1046 12.1428 16.0246 11.864 16.2047L11.4972 16.4417L12.5547 11.5241L12.9087 12.0721C13.0888 12.3508 13.4608 12.4308 13.7395 12.2508C14.0183 12.0707 14.0983 11.6987 13.9182 11.4199L12.7769 9.65338C12.5968 9.37463 12.2249 9.29463 11.9461 9.47472L10.1796 10.616C9.9008 10.7961 9.82081 11.168 10.0009 11.4468C10.181 11.7255 10.5529 11.8055 10.8317 11.6254L11.3797 11.2714L10.3222 16.189L10.0852 15.8222C9.90516 15.5434 9.53318 15.4634 9.25443 15.6435C8.97568 15.8236 8.89569 16.1956 9.07577 16.4743L10.1 18.0597C10.2801 18.3385 10.652 18.4184 10.9308 18.2383L12.5162 17.2141C12.7949 17.0341 12.8749 16.6621 12.6948 16.3833ZM15.9208 13.0539C15.0384 13.646 14.8052 14.84 15.3998 15.7207L16.6319 17.5456L17.7928 19.2651C16.8867 19.3029 16.077 19.98 15.9516 20.95C15.8449 21.7758 16.2801 22.5777 17.032 22.9406L20.3769 24.555C21.6617 25.1751 23.1794 25.0682 24.3626 24.2742L26.2135 23.0321C27.8586 21.9282 28.4463 19.7898 27.5961 18.0012L26.8474 16.4263C26.1786 15.0193 24.5925 14.2952 23.0889 14.7103L19.9465 15.5779L19.7486 15.2848L18.5952 13.5764C18.0006 12.6957 16.8032 12.4618 15.9208 13.0539ZM16.7303 14.8278C16.6309 14.6806 16.6699 14.4809 16.8175 14.3819C16.965 14.2829 17.1652 14.322 17.2646 14.4693L18.4181 16.1777L18.6159 16.4708C19.0018 17.0424 19.7108 17.3039 20.3761 17.1203L23.5185 16.2526C24.2703 16.045 25.0634 16.4071 25.3978 17.1106L26.1464 18.6855C26.6565 19.7587 26.3039 21.0417 25.3169 21.7041L23.466 22.9462C22.7561 23.4225 21.8455 23.4867 21.0746 23.1146L17.7296 21.5002C17.5997 21.4375 17.5245 21.299 17.5429 21.1562C17.5708 20.9404 17.7948 20.8085 17.9979 20.8882L19.4425 21.4555C19.7694 21.5839 20.1418 21.4853 20.3616 21.2123C20.5813 20.9393 20.5973 20.5552 20.401 20.2646L17.9625 16.6528L16.7303 14.8278Z" fill="#E4E4E7"/>
<path d="M16.7303 14.8278C16.6309 14.6806 16.6699 14.4809 16.8175 14.3819C16.965 14.2829 17.1652 14.322 17.2646 14.4693L18.4181 16.1777L18.6159 16.4708C19.0018 17.0424 19.7108 17.3039 20.3761 17.1203L23.5185 16.2526C24.2703 16.045 25.0634 16.4071 25.3978 17.1106L26.1464 18.6855C26.6565 19.7587 26.3039 21.0417 25.3169 21.7041L23.466 22.9462C22.7561 23.4225 21.8455 23.4867 21.0746 23.1146L17.7296 21.5002C17.5997 21.4375 17.5245 21.299 17.5429 21.1562C17.5708 20.9404 17.7948 20.8085 17.9979 20.8882L19.4425 21.4555C19.7694 21.5839 20.1418 21.4853 20.3616 21.2123C20.5813 20.9393 20.5973 20.5552 20.401 20.2646L17.9625 16.6528L16.7303 14.8278Z" fill="#E4E4E7"/>
</g>
<defs>
<clipPath id="clip0_556_3451">
<rect width="13.032" height="14.6469" fill="white" transform="translate(12.9217 12.5593) rotate(-17.8638)"/>
</clipPath>
</defs>
</svg>
