<svg width="24" height="24" viewBox="0 0 24 24" fill="none" xmlns="http://www.w3.org/2000/svg">
<path d="M20.7636 11.548L13.3936 18.918C13.2965 19.0147 13.1729 19.0803 13.0383 19.1066C12.9038 19.1328 12.7645 19.1185 12.6382 19.0654C12.5122 19.0138 12.4044 18.9258 12.3289 18.8125C12.2534 18.6992 12.2135 18.5659 12.2144 18.4297V14.5328C10.8013 14.6176 9.43155 15.0527 8.22857 15.799C7.02559 16.5452 6.02722 17.5791 5.32347 18.8074L4.29167 20.6499C4.23232 20.7565 4.14544 20.8452 4.04012 20.9068C3.93479 20.9684 3.81486 21.0006 3.69286 21H3.51782C3.36062 20.9576 3.22311 20.8617 3.12895 20.7289C3.0348 20.5961 2.98987 20.4346 3.00192 20.2722V17.5084C3.00281 15.0021 3.95396 12.5893 5.6636 10.7566C7.37324 8.92384 9.71419 7.8075 12.2144 7.63264V3.68968C12.2135 3.55352 12.2534 3.4202 12.3289 3.30691C12.4044 3.19362 12.5122 3.10553 12.6382 3.05402C12.7645 3.00089 12.9038 2.98654 13.0383 3.01279C13.1729 3.03904 13.2965 3.1047 13.3936 3.20142L20.7636 10.5714C20.893 10.701 20.9657 10.8766 20.9657 11.0597C20.9657 11.2428 20.893 11.4184 20.7636 11.548Z" fill="#E4E4E7"/>
</svg>
