<svg width="32" height="32" viewBox="0 0 32 32" fill="none" xmlns="http://www.w3.org/2000/svg">
<path d="M12.9119 19.9351C11.9185 20.2374 11.357 21.1012 11.4434 22.1377C11.573 23.1311 12.3504 23.9085 13.387 23.9949C14.0348 24.0381 14.5531 23.8221 15.1146 23.2607C16.3671 22.0082 19.8655 18.7258 21.0316 17.646C21.118 17.5597 21.0317 17.4301 20.9021 17.4301C19.2608 17.9052 14.1212 19.5896 12.9119 19.9351Z" fill="#E4E4E7"/>
<path d="M27.553 13.4566C27.337 13.0679 27.0779 12.7224 26.7755 12.3337C24.832 9.7423 21.9382 7.88515 18.5262 7.2373C11.1838 5.85524 4.10064 10.6493 2.71855 17.9915C2.37303 19.7623 2.41622 21.5762 2.76174 23.347L2.89131 23.9948L4.92126 23.5629L4.83488 22.9583C4.57573 21.1443 4.83488 19.2872 5.48273 17.5596C6.13058 15.9184 7.12396 14.45 8.46286 13.2838C9.06752 12.7656 9.75856 12.2905 10.5792 11.9018C11.3134 11.5563 12.0908 11.2539 12.9115 11.0812C13.6889 10.9084 14.5095 10.822 15.2869 10.8652C16.0643 10.9084 16.8418 11.038 17.6192 11.2107C19.0877 11.6426 20.4266 12.42 21.5063 13.4566C21.9814 13.9317 22.4133 14.45 22.7588 15.0114L23.4067 16.1775C23.5363 16.4799 23.6658 16.7822 23.7522 17.0845C23.9682 17.7324 24.0545 18.4234 24.0977 19.1144C24.1409 19.7623 24.0977 20.4533 23.9682 21.1011C23.8818 21.4467 23.7954 21.8354 23.6658 22.1809L23.4067 22.9151L29.0646 23.9948L29.1942 23.347C29.1942 23.2606 29.2374 23.1742 29.2374 23.0879C29.9716 19.5895 29.2374 16.2207 27.553 13.4566ZM25.1775 21.8354C25.2207 21.6626 25.2639 21.4898 25.3071 21.3171C25.4366 20.5397 25.523 19.7623 25.4798 18.9849C25.4366 18.1643 25.3071 17.3868 25.0479 16.6526C24.9184 16.2207 24.7456 15.832 24.5728 15.4001L26.4732 14.1476C27.9417 16.5231 28.5463 19.4168 28.1144 22.3536L25.1775 21.8354Z" fill="#E4E4E7"/>
</svg>
