<svg width="17" height="17" viewBox="0 0 17 17" fill="none" xmlns="http://www.w3.org/2000/svg">
<g id="Live area" clip-path="url(#clip0_556_3241)">
<path id="Vector" fill-rule="evenodd" clip-rule="evenodd" d="M13.7618 2.44827C15.1868 3.87971 16.0751 5.84967 16.092 8.03049C16.126 12.4486 12.5721 16.0579 8.15391 16.092C7.71209 16.0954 7.35117 15.74 7.34776 15.2982C7.34435 14.8563 7.69975 14.4954 8.14157 14.492C11.6761 14.4647 14.5193 11.5774 14.492 8.04283C14.4784 6.27925 13.7532 4.68746 12.589 3.53809L12.8478 4.68538C12.9451 5.11637 12.6745 5.54459 12.2435 5.64183C11.8125 5.73906 11.3843 5.4685 11.2871 5.0375L10.5663 1.84292C10.5131 1.60683 10.5695 1.35931 10.72 1.16969C10.8704 0.980078 11.0985 0.868747 11.3405 0.866882L14.4365 0.843024C14.8783 0.839619 15.2393 1.19502 15.2427 1.63684C15.2461 2.07865 14.8907 2.43957 14.4489 2.44298L13.7618 2.44827ZM8.83664 0.886242C8.84005 1.32806 8.48465 1.68898 8.04284 1.69239C4.50832 1.71965 1.66513 4.60705 1.69239 8.14156C1.70599 9.90516 2.43125 11.4969 3.59543 12.6463L3.33658 11.499C3.23935 11.068 3.50991 10.6398 3.94091 10.5425C4.3719 10.4453 4.80012 10.7159 4.89735 11.1469L5.61808 14.3414C5.67135 14.5775 5.61487 14.8251 5.46446 15.0147C5.31405 15.2043 5.08588 15.3156 4.84386 15.3175L1.74788 15.3413C1.30606 15.3447 0.945141 14.9893 0.941736 14.5475C0.93833 14.1057 1.29373 13.7448 1.73555 13.7414L2.42252 13.7361C0.997552 12.3047 0.109261 10.3347 0.0924396 8.1539C0.0583606 3.73576 3.61235 0.126516 8.0305 0.0924368C8.47231 0.0890289 8.83323 0.444428 8.83664 0.886242Z" fill="#E4E4E7"/>
</g>
<defs>
<clipPath id="clip0_556_3241">
<rect width="16" height="16" fill="white" transform="matrix(0.0077132 0.99997 0.99997 -0.0077132 0.030735 0.154144)"/>
</clipPath>
</defs>
</svg>
