<svg width="24" height="24" viewBox="0 0 24 24" fill="none" xmlns="http://www.w3.org/2000/svg">
<path d="M20.2562 9.39999C19.8916 9.34702 19.5435 9.21245 19.238 9.00632C18.9325 8.80019 18.6775 8.52779 18.4919 8.20942C18.3063 7.89106 18.1949 7.53492 18.166 7.16753C18.1371 6.80014 18.1914 6.43096 18.325 6.08749C18.4099 5.86295 18.4224 5.61746 18.3608 5.38545C18.2991 5.15343 18.1664 4.94653 17.9812 4.79374C17.1638 4.10728 16.2333 3.56802 15.2312 3.19999C15.0031 3.11523 14.754 3.10464 14.5194 3.16973C14.2849 3.23482 14.0769 3.37227 13.925 3.56249C13.6964 3.85478 13.4043 4.09117 13.0708 4.25375C12.7372 4.41633 12.371 4.50082 12 4.50082C11.629 4.50082 11.2628 4.41633 10.9292 4.25375C10.5957 4.09117 10.3036 3.85478 10.075 3.56249C9.92314 3.37227 9.71512 3.23482 9.48057 3.16973C9.24603 3.10464 8.99692 3.11523 8.76875 3.19999C7.84354 3.53977 6.97849 4.02504 6.20625 4.63749C6.01159 4.7916 5.87138 5.00397 5.80615 5.24352C5.74092 5.48308 5.75409 5.73722 5.84375 5.96874C5.98797 6.3213 6.04756 6.70275 6.01773 7.08249C5.9879 7.46224 5.86949 7.82971 5.672 8.15542C5.4745 8.48114 5.20342 8.75603 4.88049 8.95806C4.55757 9.16008 4.19179 9.28362 3.8125 9.31874C3.56625 9.34507 3.33497 9.44977 3.15269 9.61741C2.97042 9.78506 2.84679 10.0068 2.8 10.25C2.68362 10.8261 2.625 11.4123 2.625 12C2.62414 12.492 2.66386 12.9833 2.74375 13.4687C2.78351 13.7197 2.90484 13.9506 3.08899 14.1257C3.27313 14.3008 3.50983 14.4104 3.7625 14.4375C4.15012 14.4739 4.52339 14.6026 4.85106 14.8128C5.17874 15.0231 5.45129 15.3087 5.64589 15.6459C5.8405 15.9831 5.95151 16.362 5.96962 16.7509C5.98773 17.1398 5.91242 17.5274 5.75 17.8812C5.6437 18.1114 5.61734 18.3705 5.67509 18.6173C5.73283 18.8641 5.87139 19.0846 6.06875 19.2437C6.88132 19.9177 7.80286 20.4483 8.79375 20.8125C8.92046 20.8564 9.05341 20.8796 9.1875 20.8812C9.37136 20.8808 9.55244 20.8364 9.71556 20.7515C9.87868 20.6667 10.0191 20.544 10.125 20.3937C10.3478 20.0692 10.6464 19.8039 10.9949 19.6209C11.3434 19.438 11.7314 19.3428 12.125 19.3437C12.5064 19.3442 12.8824 19.4338 13.2231 19.6052C13.5638 19.7766 13.8598 20.0252 14.0875 20.3312C14.2389 20.5348 14.4535 20.6826 14.6976 20.7515C14.9418 20.8205 15.2019 20.8068 15.4375 20.7125C16.3436 20.3478 17.1871 19.8438 17.9375 19.2187C18.126 19.0629 18.2602 18.8513 18.3209 18.6143C18.3815 18.3773 18.3655 18.1272 18.275 17.9C18.128 17.552 18.0639 17.1746 18.0878 16.7975C18.1116 16.4205 18.2228 16.0542 18.4125 15.7275C18.6022 15.4008 18.8653 15.1227 19.1809 14.9151C19.4966 14.7075 19.8561 14.5761 20.2312 14.5312C20.4745 14.4976 20.7007 14.3874 20.8771 14.2166C21.0536 14.0458 21.171 13.8233 21.2125 13.5812C21.3129 13.0599 21.3673 12.5308 21.375 12C21.3751 11.4401 21.3228 10.8814 21.2188 10.3312C21.1765 10.0946 21.0608 9.87718 20.8881 9.71001C20.7153 9.54284 20.4942 9.43436 20.2562 9.39999ZM15.125 12C15.125 12.6181 14.9417 13.2222 14.5983 13.7361C14.255 14.2501 13.7669 14.6506 13.1959 14.8871C12.6249 15.1236 11.9965 15.1855 11.3903 15.0649C10.7842 14.9444 10.2273 14.6467 9.79029 14.2097C9.35325 13.7727 9.05562 13.2158 8.93504 12.6097C8.81447 12.0035 8.87635 11.3751 9.11288 10.8041C9.3494 10.2331 9.74994 9.74503 10.2638 9.40165C10.7777 9.05827 11.3819 8.87499 12 8.87499C12.8288 8.87499 13.6237 9.20423 14.2097 9.79028C14.7958 10.3763 15.125 11.1712 15.125 12Z" fill="#E4E4E7"/>
</svg>
